<svg width="17" height="16" viewBox="0 0 17 16" xmlns="http://www.w3.org/2000/svg"><title>icon-instagram</title><g fill-rule="nonzero" fill="#555"><path d="M11.81 7.54c0 2.01-1.672 3.642-3.736 3.642S4.337 9.552 4.337 7.54c0-.456.09-.89.246-1.29H0v5.424c0 2.174 1.808 3.935 4.037 3.935h8.074c2.23 0 4.038-1.762 4.038-3.936V6.25h-4.583c.156.4.246.834.246 1.29z"/><ellipse cx="8.075" cy="7.601" rx="2.243" ry="2.186"/><path d="M12.11 0H4.25v4.103h-.883V.06c-.307.048-.604.13-.883.243v3.8H1.6v-3.3C.63 1.52 0 2.654 0 3.934v1.152h5.438c.676-.655 1.607-1.06 2.636-1.06 1.028 0 1.96.405 2.635 1.06h5.438V3.935C16.148 1.762 14.34 0 12.11 0zm1.804 3.72c0 .245-.203.443-.454.443H12.1c-.25 0-.454-.198-.454-.442V2.395c0-.244.203-.442.454-.442h1.36c.25 0 .454.198.454.442V3.72z"/></g></svg>