<svg width="120" height="56" viewBox="0 0 120 56" xmlns="http://www.w3.org/2000/svg" xmlns:xlink="http://www.w3.org/1999/xlink">
  <title>
    logo
  </title>
  <defs>
    <path id="a" d="M.56 55.348h54.036V.018H.56z"/>
  </defs>
  <g fill="none" fill-rule="evenodd">
    <path d="M92.757 22.02c.265 3.716-3.663 5.727-3.663 5.727s-4.173-1.427-4.438-5.143c-.264-3.717 3.432-8.963 3.432-8.963s4.404 4.663 4.67 8.38M53.65 49.495c-2.386-1.49-1.866-4.81-1.866-4.81s2.726-1.944 5.112-.454 3.943 6.106 3.943 6.106-4.804.648-7.19-.84" fill="#7EB184"/>
    <g transform="translate(35.81 .025)">
      <mask id="b" fill="#fff">
        <use xlink:href="#a"/>
      </mask>
      <path d="M32.76 24.872c0-.886-1.813-1.33-5.44-1.33-.734 0-1.496.025-2.28.073 1.178 1.478 2.758 2.22 4.744 2.22 1.985 0 2.977-.32 2.977-.963m-8.307-2.293l4.926-.15c2.057 0 3.43.445 4.116 1.333.342.395.515.79.515 1.183 0 .395-.12.74-.368 1.036-.588.74-1.69 1.11-3.307 1.11-2.794 0-5.27-1.085-7.426-3.256-5.49.84-9.657 3.773-12.5 8.804-1.812 3.253-2.72 6.434-2.72 9.54 0 1.727.27 3.43.81 5.105 1.616 4.734 5.12 7.1 10.514 7.1 4.802 0 8.968-1.627 12.498-4.882 3.528-3.253 5.292-6.483 5.292-9.69 0-1.526-.65-2.798-1.947-3.81-1.3-1.008-2.673-1.6-4.117-1.774-1.447-.173-2.673-.26-3.677-.26-1.005 0-2.304.112-3.895.334-1.595.22-3.174.875-4.743 1.96-1.862 1.282-2.795 2.984-2.795 5.103 0 2.122 1.643 4.043 4.926 5.77.49.295.7.678.625 1.147-.07.47-.28.604-.624.407-3.088-1.675-5.27-3.574-6.543-5.695-.88-1.38-1.322-2.54-1.322-3.478 0-.935.123-1.7.368-2.292.588-1.726 2.06-3.18 4.41-4.364 2.353-1.184 5.343-1.775 8.97-1.775H39.45c2.548 0 5.686-.86 9.412-2.588 1.812-.84 3.137-1.824 3.97-2.96.39-.59.587-1.22.587-1.886 0-.664-.147-1.243-.44-1.737-.294-.492-.418-.838-.37-1.035.05-.197.184-.297.406-.297.22 0 .403.125.55.37.686 1.186 1.03 2.308 1.03 3.368s-.32 2.034-.955 2.92c-1.226 1.876-3.31 3.38-6.248 4.513-2.942 1.137-5.982 1.702-9.117 1.702h-.368c1.863 1.53 2.794 3.477 2.794 5.844 0 3.304-1.91 6.707-5.733 10.207-1.815 1.727-4.142 3.13-6.985 4.217-2.843 1.084-5.833 1.628-8.968 1.628-7.598 0-12.965-2.22-16.102-6.657C1.344 46.47.56 44.327.56 42.255c0-2.07.318-3.994.955-5.768 1.715-4.686 5.17-8.31 10.367-10.874 2.99-1.48 6.346-2.415 10.072-2.81-1.373-1.924-2.048-4.34-2.023-7.25.027-2.91 1.288-5.645 3.788-8.21 2.5-2.563 5.38-4.426 8.64-5.586C35.614.6 38.787.02 41.877.02c2.547 0 4.716.516 6.506 1.552 1.788 1.035 2.683 2.69 2.683 4.956 0 1.43-.44 2.7-1.323 3.81-.882 1.108-1.876 1.664-2.978 1.664-1.102 0-1.985-.334-2.646-.998-.662-.666-.993-1.492-.993-2.478 0-.986.33-1.8.993-2.442.66-.64 1.432-.96 2.316-.96.587 0 1.15.135 1.69.405s.856.58.956.925c.05-.297.074-.593.074-.89 0-1.084-.44-1.922-1.324-2.513-.932-.69-2.33-1.037-4.19-1.037-1.863 0-4.043.507-6.544 1.517-2.498 1.012-4.853 2.478-7.057 4.4-2.205 1.924-3.945 4.292-5.218 7.102-.687 1.58-1.03 2.985-1.03 4.217 0 1.234.22 2.343.66 3.33" fill="#3A393B" mask="url(#b)"/>
    </g>
    <path d="M0 5.57h1.986l3.912 10.87h.057c-.018-.253-.043-.537-.075-.846-.032-.31-.06-.665-.087-1.06-.025-.398-.046-.846-.066-1.346-.017-.5-.026-1.067-.026-1.694V5.57h2.193V21.81H5.89L1.994 11.23H1.92c.018.284.043.592.075.925.03.333.06.724.085 1.175.025.45.047.975.066 1.574.02.6.03 1.31.03 2.135v4.772H0V5.57zM13.357 20.102c.2 0 .398-.053.59-.157.193-.105.354-.234.487-.385v-4.1c-.126.05-.268.11-.426.18-.156.072-.327.162-.51.277-.17.108-.336.238-.5.39-.165.152-.31.333-.44.542-.13.208-.233.444-.312.707-.08.264-.117.557-.117.88 0 .5.096.903.29 1.207.196.305.507.458.937.458m-1.06 1.855c-.403 0-.76-.082-1.073-.244-.31-.16-.574-.382-.79-.66-.212-.28-.374-.61-.484-.995-.112-.383-.168-.8-.168-1.25 0-.54.068-1.017.2-1.436.132-.418.326-.796.582-1.132.254-.336.57-.642.95-.917.377-.277.815-.538 1.314-.784.24-.123.508-.244.808-.368.298-.125.566-.23.798-.32v-1.73c0-.252-.01-.49-.028-.71-.02-.216-.065-.407-.138-.57-.07-.16-.18-.288-.326-.38-.145-.09-.344-.138-.596-.138-.168 0-.335.032-.496.096-.16.064-.302.17-.424.323-.123.152-.222.355-.293.61-.073.252-.11.566-.11.94v.57H10.2c-.058-.247-.1-.473-.128-.678-.028-.207-.043-.41-.043-.614 0-.488.083-.92.25-1.292.166-.375.4-.69.7-.943.3-.252.657-.445 1.072-.575.416-.13.873-.195 1.37-.195.65 0 1.188.073 1.617.214.427.142.77.355 1.024.642.255.284.435.643.54 1.074.103.432.155.936.155 1.512v9.805H14.98l-.17-1.123c-.257.375-.602.678-1.035.915-.432.233-.925.352-1.48.352M19.51 10.43h-1.012V8.716h1.22l.482-3.395h1.702v3.395h2.08v1.712H21.9v8.33c0 .285.026.516.08.69.054.175.128.31.222.41.094.097.206.163.33.194.126.032.26.048.397.048.234 0 .44-.03.62-.086.18-.057.352-.136.516-.24v1.333c-.14.17-.288.31-.45.418-.16.108-.326.195-.494.26-.17.067-.344.114-.52.14-.177.024-.35.038-.52.038-.334 0-.657-.046-.966-.134-.31-.088-.582-.26-.82-.508-.242-.25-.432-.6-.574-1.042-.142-.443-.212-1.02-.212-1.73v-8.123zM25.634 8.717h2.392v9.844c0 .578.09.978.265 1.204.178.225.436.337.776.337.24 0 .473-.065.7-.2.226-.132.43-.322.614-.57V8.718h2.392v13.095h-1.824l-.238-1.397h-.01c-.187.3-.388.547-.598.746-.21.2-.433.36-.662.477-.23.118-.466.2-.705.25-.238.053-.48.08-.718.08-.763 0-1.35-.268-1.763-.8-.413-.533-.62-1.338-.62-2.416V8.718zM35.267 8.717h1.75l.206 1.332c.265-.495.57-.866.914-1.114.342-.247.694-.37 1.053-.37.687 0 1.194.212 1.52.637.33.424.493 1.062.493 1.91 0 .11-.008.237-.023.386-.016.15-.04.304-.067.465-.028.162-.063.324-.105.485-.04.162-.082.31-.126.443H39.22v-1.217c0-.267-.02-.486-.054-.657-.034-.172-.08-.31-.136-.415-.058-.104-.125-.177-.2-.218-.075-.042-.157-.063-.246-.063-.188 0-.364.063-.524.187-.16.125-.294.297-.402.518v10.784h-2.39V8.717zM47.177 14.1c.007-.07.013-.163.018-.28.007-.118.012-.24.015-.366.004-.127.005-.252.005-.376v-.318c0-.863-.102-1.484-.302-1.864-.203-.382-.5-.57-.9-.57-.206 0-.39.048-.547.145-.158.1-.287.266-.387.496-.102.23-.178.537-.228.92-.05.38-.076.85-.076 1.416v.798h2.4zm-1.322 7.856c-.563 0-1.06-.104-1.49-.315-.432-.207-.796-.533-1.092-.977-.297-.445-.52-1.013-.67-1.707-.152-.695-.228-1.53-.228-2.508v-2.472c0-.83.062-1.542.185-2.135.122-.59.282-1.088.48-1.49.2-.404.43-.722.69-.958.262-.234.532-.413.81-.537.277-.124.553-.2.826-.237.275-.035.53-.052.762-.052.428 0 .842.065 1.237.195.398.13.747.352 1.05.665.303.314.544.734.724 1.26.178.527.268 1.184.268 1.97 0 .265-.008.536-.023.808-.016.272-.037.54-.062.805-.025.263-.058.518-.1.765-.04.248-.083.475-.128.684h-4.32v1.332c0 .57.024 1.05.068 1.44.043.39.116.702.22.94.106.24.246.41.427.515.18.104.406.157.676.157.143 0 .287-.03.426-.09.138-.062.26-.16.363-.3.104-.14.187-.325.25-.556.063-.232.095-.52.095-.862v-.408h1.995v.504c0 1.243-.294 2.15-.885 2.714-.59.568-1.44.852-2.555.852zM81.12 36.63h6.172v1.942h-3.724v4.86h2.922v1.942h-2.922v7.503H81.12M88.778 39.78h1.748l.208 1.33c.266-.492.57-.863.913-1.112.343-.247.695-.37 1.054-.37.688 0 1.195.213 1.523.64.327.422.492 1.06.492 1.91 0 .108-.008.236-.024.385-.015.15-.036.303-.066.466-.03.16-.063.323-.104.483-.04.162-.083.31-.126.443H92.73V42.74c0-.268-.018-.486-.053-.66-.034-.168-.08-.307-.138-.41-.058-.106-.124-.178-.198-.22-.076-.04-.158-.062-.247-.062-.188 0-.363.06-.524.186-.16.123-.293.295-.4.517v10.787h-2.392V39.78zM100.69 45.164c.006-.07.013-.163.018-.28.007-.118.01-.24.014-.366.003-.128.004-.253.004-.377v-.316c0-.864-.1-1.484-.3-1.866-.204-.38-.503-.57-.9-.57-.208 0-.39.05-.548.146-.158.1-.286.264-.387.495-.1.23-.175.537-.226.917-.05.382-.075.854-.075 1.42v.797h2.4zm-1.324 7.856c-.56 0-1.057-.103-1.49-.314-.432-.208-.796-.535-1.09-.98-.297-.443-.52-1.012-.673-1.706-.15-.696-.226-1.53-.226-2.506V45.04c0-.83.062-1.542.184-2.136.124-.592.285-1.09.484-1.492.197-.403.428-.722.69-.958.26-.233.53-.41.81-.536.276-.123.55-.202.825-.236.272-.035.527-.054.76-.054.43 0 .84.066 1.238.195.398.13.746.352 1.05.666.303.313.544.733.723 1.26.18.526.27 1.182.27 1.967 0 .267-.008.538-.022.81-.016.272-.037.54-.063.805-.025.263-.058.517-.1.764-.04.25-.083.475-.128.684H98.29v1.333c0 .57.02 1.05.065 1.44.044.39.117.704.22.942.106.24.247.41.427.514.18.104.405.156.675.156.145 0 .287-.03.426-.09.138-.06.26-.16.365-.3.102-.14.187-.324.25-.556.063-.232.095-.52.095-.86v-.41h1.994v.504c0 1.242-.294 2.148-.884 2.716-.59.567-1.442.85-2.557.85zM104.433 50.138c0-.284.027-.56.08-.827.055-.265.105-.477.156-.637h1.682c0 .476.024.875.07 1.194.048.322.126.577.233.766.107.19.25.327.43.408.18.084.398.126.657.126.358 0 .62-.102.784-.305.164-.2.245-.436.245-.703 0-.14-.016-.27-.055-.4-.037-.126-.09-.254-.16-.385-.07-.13-.154-.26-.255-.394-.102-.132-.215-.28-.34-.437l-1.75-2.073c-.226-.286-.446-.575-.657-.87-.212-.295-.396-.6-.558-.913-.16-.314-.29-.643-.387-.986-.097-.342-.146-.703-.146-1.082 0-.51.086-.95.26-1.324.173-.374.406-.685.7-.932.292-.246.63-.432 1.015-.55.384-.12.79-.182 1.22-.182.472 0 .898.057 1.276.172.378.112.703.285.973.512.27.23.48.513.624.853.146.34.22.734.22 1.182 0 .306-.03.6-.082.887-.055.284-.106.528-.157.732h-1.653c-.006-.432-.025-.81-.057-1.13-.03-.326-.09-.594-.175-.808-.085-.21-.2-.372-.35-.477-.147-.11-.34-.162-.58-.162-.21 0-.382.033-.52.1-.14.067-.25.152-.336.262-.086.108-.147.228-.18.36-.035.135-.052.27-.052.41 0 .304.073.585.217.846.145.26.337.543.576.847l1.91 2.254c.14.172.3.38.484.623.18.244.356.514.52.81.164.294.302.617.415.965.113.348.168.713.168 1.093 0 .462-.07.882-.216 1.26-.146.377-.36.7-.643.964-.284.267-.632.474-1.045.62-.414.146-.885.218-1.414.218-.434 0-.844-.048-1.228-.146-.384-.1-.718-.26-1.003-.486-.283-.224-.508-.522-.672-.89-.163-.367-.245-.82-.245-1.36M112.78 35.576h2.392v3.08l-.124 2.247c.178-.248.368-.452.573-.614.206-.162.418-.293.635-.39.217-.1.438-.17.662-.21.223-.04.446-.063.666-.063.763 0 1.35.27 1.763.804.414.54.62 1.34.62 2.412v10.035h-2.392V42.93c0-.578-.09-.98-.265-1.205-.178-.225-.436-.337-.776-.337-.24 0-.48.08-.724.242-.242.162-.454.386-.638.67v10.577h-2.392v-17.3z" fill="#3A393B"/>
  </g>
</svg>
